<svg width="104" height="20" viewBox="0 0 104 20" fill="none" xmlns="http://www.w3.org/2000/svg">
<path d="M8.75244 15.9727V0.25H12.8906V19H9.17969L8.75244 15.9727ZM0.646973 12.5547V12.2983C0.646973 11.2974 0.756836 10.3859 0.976562 9.56396C1.19629 8.73389 1.52181 8.02181 1.95312 7.42773C2.38444 6.82552 2.92155 6.36165 3.56445 6.03613C4.20736 5.71061 4.94792 5.54785 5.78613 5.54785C6.53483 5.54785 7.18994 5.72282 7.75146 6.07275C8.31299 6.41455 8.79313 6.89469 9.19189 7.51318C9.59066 8.13167 9.91618 8.85596 10.1685 9.68604C10.4207 10.508 10.612 11.395 10.7422 12.3472V12.6523C10.612 13.5475 10.4207 14.3939 10.1685 15.1914C9.91618 15.9808 9.59066 16.6807 9.19189 17.291C8.79313 17.9014 8.30892 18.3815 7.73926 18.7314C7.17773 19.0732 6.51855 19.2441 5.76172 19.2441C4.9235 19.2441 4.18294 19.0773 3.54004 18.7437C2.90527 18.41 2.37223 17.9421 1.94092 17.3398C1.51774 16.7376 1.19629 16.0296 0.976562 15.2158C0.756836 14.402 0.646973 13.515 0.646973 12.5547ZM4.76074 12.2983V12.5547C4.76074 13.0511 4.79329 13.5109 4.8584 13.9341C4.9235 14.3573 5.03337 14.7316 5.18799 15.0571C5.35075 15.3745 5.56234 15.6227 5.82275 15.8018C6.09131 15.9808 6.4209 16.0703 6.81152 16.0703C7.34049 16.0703 7.77588 15.9442 8.11768 15.6919C8.46761 15.4396 8.72396 15.0815 8.88672 14.6177C9.05762 14.1538 9.13086 13.6086 9.10645 12.9819V12.0176C9.12272 11.4805 9.0861 11.0085 8.99658 10.6016C8.90706 10.1865 8.76465 9.84066 8.56934 9.56396C8.38216 9.28727 8.14209 9.07975 7.84912 8.94141C7.56429 8.79492 7.22656 8.72168 6.83594 8.72168C6.45345 8.72168 6.12793 8.8112 5.85938 8.99023C5.59896 9.16927 5.38737 9.42155 5.22461 9.74707C5.06185 10.0645 4.94385 10.4429 4.87061 10.8823C4.79736 11.3136 4.76074 11.7856 4.76074 12.2983ZM21.6187 19.2441C20.5444 19.2441 19.5841 19.0773 18.7378 18.7437C17.8914 18.4019 17.1753 17.9339 16.5894 17.3398C16.0116 16.7458 15.568 16.0622 15.2588 15.2891C14.9577 14.516 14.8071 13.6981 14.8071 12.8354V12.3716C14.8071 11.4032 14.9414 10.508 15.21 9.68604C15.4785 8.85596 15.8773 8.13167 16.4062 7.51318C16.9352 6.89469 17.5985 6.41455 18.396 6.07275C19.1935 5.72282 20.1213 5.54785 21.1792 5.54785C22.1151 5.54785 22.9533 5.6984 23.6938 5.99951C24.4344 6.30062 25.061 6.73193 25.5737 7.29346C26.0946 7.85498 26.4893 8.53451 26.7578 9.33203C27.0345 10.1296 27.1729 11.0247 27.1729 12.0176V13.6899H16.3818V11.1143H23.1567V10.7969C23.1649 10.3574 23.0876 9.98307 22.9248 9.67383C22.7702 9.36458 22.5423 9.12858 22.2412 8.96582C21.9401 8.80306 21.5739 8.72168 21.1426 8.72168C20.695 8.72168 20.3247 8.81934 20.0317 9.01465C19.7469 9.20996 19.5231 9.47852 19.3604 9.82031C19.2057 10.154 19.0959 10.5405 19.0308 10.98C18.9657 11.4194 18.9331 11.8833 18.9331 12.3716V12.8354C18.9331 13.3237 18.9982 13.7673 19.1284 14.166C19.2668 14.5648 19.4621 14.9066 19.7144 15.1914C19.9748 15.4681 20.284 15.6838 20.6421 15.8384C21.0083 15.993 21.4233 16.0703 21.8872 16.0703C22.4487 16.0703 23.0021 15.9645 23.5474 15.7529C24.0926 15.5413 24.5605 15.1914 24.9512 14.7031L26.8188 16.9248C26.5503 17.3073 26.1678 17.6776 25.6714 18.0356C25.1831 18.3937 24.5972 18.6867 23.9136 18.9146C23.23 19.1343 22.465 19.2441 21.6187 19.2441ZM33.4351 16.1802L36.0352 5.79199H40.3687L36.0474 19H33.4839L33.4351 16.1802ZM31.897 5.79199L34.4604 16.1802L34.436 19H31.8604L27.5513 5.79199H31.897ZM39.8071 17.0713C39.8071 16.4854 40.0187 15.9971 40.4419 15.6064C40.8651 15.2077 41.4103 15.0083 42.0776 15.0083C42.7531 15.0083 43.2983 15.2077 43.7134 15.6064C44.1366 15.9971 44.3481 16.4854 44.3481 17.0713C44.3481 17.6572 44.1366 18.1496 43.7134 18.5483C43.2983 18.939 42.7531 19.1343 42.0776 19.1343C41.4103 19.1343 40.8651 18.939 40.4419 18.5483C40.0187 18.1496 39.8071 17.6572 39.8071 17.0713ZM51.1475 8.61182V19H47.0337V5.79199H50.8911L51.1475 8.61182ZM50.6592 11.9443L49.6948 11.9688C49.6948 10.9596 49.8169 10.0604 50.061 9.271C50.3052 8.47347 50.651 7.79801 51.0986 7.24463C51.5462 6.69124 52.0793 6.27214 52.6978 5.9873C53.3244 5.69434 54.0202 5.54785 54.7852 5.54785C55.3955 5.54785 55.953 5.63737 56.4575 5.81641C56.9702 5.99544 57.4097 6.28434 57.7759 6.68311C58.1502 7.08187 58.4351 7.61084 58.6304 8.27002C58.8338 8.92106 58.9355 9.72673 58.9355 10.687V19H54.7974V10.6748C54.7974 10.1458 54.7241 9.743 54.5776 9.46631C54.4312 9.18148 54.2196 8.98617 53.9429 8.88037C53.6662 8.77458 53.3285 8.72168 52.9297 8.72168C52.5065 8.72168 52.1484 8.80306 51.8555 8.96582C51.5625 9.12858 51.3265 9.35645 51.1475 9.64941C50.9766 9.93424 50.8504 10.272 50.769 10.6626C50.6958 11.0532 50.6592 11.4805 50.6592 11.9443ZM67.6147 19.2441C66.5405 19.2441 65.5802 19.0773 64.7339 18.7437C63.8875 18.4019 63.1714 17.9339 62.5854 17.3398C62.0076 16.7458 61.5641 16.0622 61.2549 15.2891C60.9538 14.516 60.8032 13.6981 60.8032 12.8354V12.3716C60.8032 11.4032 60.9375 10.508 61.2061 9.68604C61.4746 8.85596 61.8734 8.13167 62.4023 7.51318C62.9313 6.89469 63.5946 6.41455 64.3921 6.07275C65.1896 5.72282 66.1174 5.54785 67.1753 5.54785C68.1112 5.54785 68.9494 5.6984 69.6899 5.99951C70.4305 6.30062 71.0571 6.73193 71.5698 7.29346C72.0907 7.85498 72.4854 8.53451 72.7539 9.33203C73.0306 10.1296 73.1689 11.0247 73.1689 12.0176V13.6899H62.3779V11.1143H69.1528V10.7969C69.161 10.3574 69.0837 9.98307 68.9209 9.67383C68.7663 9.36458 68.5384 9.12858 68.2373 8.96582C67.9362 8.80306 67.57 8.72168 67.1387 8.72168C66.6911 8.72168 66.3208 8.81934 66.0278 9.01465C65.743 9.20996 65.5192 9.47852 65.3564 9.82031C65.2018 10.154 65.092 10.5405 65.0269 10.98C64.9618 11.4194 64.9292 11.8833 64.9292 12.3716V12.8354C64.9292 13.3237 64.9943 13.7673 65.1245 14.166C65.2629 14.5648 65.4582 14.9066 65.7104 15.1914C65.9709 15.4681 66.2801 15.6838 66.6382 15.8384C67.0044 15.993 67.4194 16.0703 67.8833 16.0703C68.4448 16.0703 68.9982 15.9645 69.5435 15.7529C70.0887 15.5413 70.5566 15.1914 70.9473 14.7031L72.8149 16.9248C72.5464 17.3073 72.1639 17.6776 71.6675 18.0356C71.1792 18.3937 70.5933 18.6867 69.9097 18.9146C69.2261 19.1343 68.4611 19.2441 67.6147 19.2441ZM78.8574 15.0693L81.2988 5.79199H83.8745L82.959 10.4429L80.542 19H78.479L78.8574 15.0693ZM77.8931 5.79199L79.4067 14.9961L79.5776 19H77.0752L73.9502 5.79199H77.8931ZM86.0474 14.8008L87.5732 5.79199H91.5161L88.4155 19H85.9131L86.0474 14.8008ZM84.1675 5.79199L86.6333 15.0449L87.0117 19H84.9243L82.5562 10.4673L81.6772 5.79199H84.1675ZM99.9268 15.2891C99.9268 15.0612 99.8494 14.8659 99.6948 14.7031C99.5483 14.5322 99.2879 14.3776 98.9136 14.2393C98.5392 14.0928 98.0143 13.9463 97.3389 13.7998C96.696 13.6615 96.0897 13.4784 95.52 13.2505C94.9585 13.0226 94.4661 12.7459 94.043 12.4204C93.6198 12.0949 93.2861 11.7083 93.042 11.2607C92.806 10.8132 92.688 10.3005 92.688 9.72266C92.688 9.16113 92.806 8.63216 93.042 8.13574C93.2861 7.63118 93.6401 7.18766 94.104 6.80518C94.576 6.41455 95.1497 6.10938 95.8252 5.88965C96.5007 5.66178 97.2697 5.54785 98.1323 5.54785C99.3205 5.54785 100.346 5.73096 101.208 6.09717C102.071 6.45524 102.734 6.9598 103.198 7.61084C103.67 8.25374 103.906 8.99837 103.906 9.84473H99.7925C99.7925 9.51107 99.7355 9.22624 99.6216 8.99023C99.5158 8.75423 99.3408 8.5752 99.0967 8.45312C98.8525 8.32292 98.527 8.25781 98.1201 8.25781C97.8353 8.25781 97.5749 8.31071 97.3389 8.4165C97.111 8.5223 96.9279 8.66878 96.7896 8.85596C96.6512 9.04313 96.582 9.26286 96.582 9.51514C96.582 9.69417 96.6227 9.85693 96.7041 10.0034C96.7936 10.1418 96.9279 10.272 97.1069 10.394C97.286 10.508 97.5138 10.6138 97.7905 10.7114C98.0672 10.8009 98.4009 10.8823 98.7915 10.9556C99.6785 11.1183 100.509 11.3503 101.282 11.6514C102.055 11.9525 102.681 12.3797 103.162 12.9331C103.65 13.4865 103.894 14.2311 103.894 15.167C103.894 15.7529 103.76 16.2941 103.491 16.7905C103.223 17.2788 102.836 17.7101 102.332 18.0845C101.827 18.4507 101.221 18.7355 100.513 18.939C99.8047 19.1424 99.0072 19.2441 98.1201 19.2441C96.8587 19.2441 95.7926 19.0203 94.9219 18.5728C94.0511 18.117 93.3919 17.5474 92.9443 16.8638C92.5049 16.172 92.2852 15.4722 92.2852 14.7642H96.1182C96.1344 15.1711 96.2321 15.5047 96.4111 15.7651C96.5983 16.0256 96.8465 16.2168 97.1558 16.3389C97.465 16.4609 97.8231 16.522 98.23 16.522C98.6043 16.522 98.9136 16.4691 99.1577 16.3633C99.41 16.2575 99.6012 16.1151 99.7314 15.936C99.8617 15.7489 99.9268 15.5332 99.9268 15.2891Z" fill="white" fill-opacity="0.9"/>
</svg>
